# xmcd
#
# Track frame offsets: 
#        150
#        17169
#        37259
#        53350
#        70795
#        88925
#        109048
#        128636
#        144530
#        164232
#        183551
#        208423
#        229089
#        243283
#        261341
#        283676
#
# Disc length: 4007 seconds
#
# Revision: 0
# Processed by: cddbd v1.5.2PL0 Copyright (c) Steve Scherf et al.
# Submitted via: ExactAudioCopy v0.99pb4
#
DISCID=f30fa510
DTITLE=Various Artist - 寶麗金珍藏榜 Disc 2
DYEAR=1900
DGENRE=
TTITLE0=愛情故事
TTITLE1=餘情未了
TTITLE2=你是明白意義
TTITLE3=雨夜鋼琴
TTITLE4=不裝飾你的夢
TTITLE5=石頭記
TTITLE6=容昜受傷的女人
TTITLE7=改改改
TTITLE8=沒名字的歌沒名字的你
TTITLE9=遙遠的她
TTITLE10=最後一夜
TTITLE11=紅雨灰天
TTITLE12=漣漪
TTITLE13=讓一切隨風
TTITLE14=千千闕歌
TTITLE15=一人有-個夢想
EXTD=
EXTT0=
EXTT1=
EXTT2=
EXTT3=
EXTT4=
EXTT5=
EXTT6=
EXTT7=
EXTT8=
EXTT9=
EXTT10=
EXTT11=
EXTT12=
EXTT13=
EXTT14=
EXTT15=
PLAYORDER=
